<svg width="30" height="19" viewBox="0 0 30 19" fill="none" xmlns="http://www.w3.org/2000/svg">
<path d="M16.4902 4.09804C16.0378 4.09804 15.6039 4.27776 15.284 4.59768C14.9641 4.91759 14.7843 5.35149 14.7843 5.80392V12.6274C14.7843 13.0799 14.9641 13.5138 15.284 13.8337C15.6039 14.1536 16.0378 14.3333 16.4902 14.3333C16.9427 14.3333 17.3766 14.1536 17.6965 13.8337C18.0164 13.5138 18.1961 13.0799 18.1961 12.6274C18.1961 12.175 18.0164 11.7411 17.6965 11.4212C17.3766 11.1013 16.9427 10.9216 16.4902 10.9216H9.6667C9.21427 10.9216 8.78037 11.1013 8.46046 11.4212C8.14054 11.7411 7.96082 12.175 7.96082 12.6274C7.96082 13.0799 8.14054 13.5138 8.46046 13.8337C8.78037 14.1536 9.21427 14.3333 9.6667 14.3333C10.1191 14.3333 10.553 14.1536 10.8729 13.8337C11.1929 13.5138 11.3726 13.0799 11.3726 12.6274V5.80392C11.3726 5.35149 11.1929 4.91759 10.8729 4.59768C10.553 4.27776 10.1191 4.09804 9.6667 4.09804C9.21427 4.09804 8.78037 4.27776 8.46046 4.59768C8.14054 4.91759 7.96082 5.35149 7.96082 5.80392C7.96082 6.25635 8.14054 6.69025 8.46046 7.01016C8.78037 7.33008 9.21427 7.5098 9.6667 7.5098H16.4902C16.9427 7.5098 17.3766 7.33008 17.6965 7.01016C18.0164 6.69025 18.1961 6.25635 18.1961 5.80392C18.1961 5.35149 18.0164 4.91759 17.6965 4.59768C17.3766 4.27776 16.9427 4.09804 16.4902 4.09804Z" stroke="black" stroke-opacity="0.28" stroke-width="1.13725" stroke-linecap="round" stroke-linejoin="round"/>
<path d="M22.4579 3.71588V15.1176H20.4923V3.71588H22.4579ZM29.3099 3.71588L24.6897 9.20533L22.0585 11.9931L21.714 10.0432L23.5934 7.72529L26.9137 3.71588H29.3099ZM27.1956 15.1176L23.4446 9.71433L24.7993 8.37525L29.5292 15.1176H27.1956Z" fill="black" fill-opacity="0.53"/>
</svg>
